<?xml version="1.0" encoding="UTF-8"?>
<svg version="1.1" viewBox="0 0 2044 980" width="1280" height="1280" xmlns="http://www.w3.org/2000/svg">
<path transform="translate(256,274)" d="m0 0 12 2 8 6 6 10 1 3v10l-6 12-11 17-12 20-11 23-5 15-2 10v18l4 13 8 11 6 5 2 1 18-1 23-4 29-8 24-9 23-10 21-10 20-11 15-8 13-3 13 1 12 6 7 9 4 10v13l-4 13-6 12-9 12-11 12-9 11-8 10-13 19-10 17-8 16-8 18-8 26-4 18 3 10 7 11 10 7 10 4 16 3h25l26-4 26-7 21-7 6-1h10l9 2 9 5 8 7 6 10 3 13-2 12-5 10-6 7-13 8-14 6-21 7-25 6-26 4-10 1h-44l-23-3-26-6-26-9-27-13-18-11-14-10-11-9-10-9-18-18-11-14-11-15-14-24-9-19-9-25-7-26-5-40v-22l4-35 6-25 10-30 8-18 12-22 10-14 10-13 8-10 10-7z" fill="#FDFDFD"/>
<path transform="translate(1375,574)" d="m0 0h15l13 2 13 4 16 9 11 11 9 14 4 10 3 19v12l-3 20-4 10-7 11-11 12-14 9-13 5-19 3h-12l-14-2-14-5-12-7-10-9-6-7-5-8-7-19-1-5v-27l4-15 8-16 11-12 7-6 10-6 15-5zm0 34-11 4-8 7-7 12-3 12v12l2 10 6 12 5 6 10 6 8 2h12l10-3 11-8 6-9 3-11v-22l-4-12-9-10-9-6-7-2z" fill="#FDFDFD"/>
<path transform="translate(1007,574)" d="m0 0h14l14 2 13 4 12 7 7 7 6 12 4 17v98h-38l-1-3v-10l-7 4-9 7-11 4-13 2h-10l-14-3-12-6-10-9-6-10-4-13v-15l4-12 7-10 9-8 8-4 11-3h24l13 3 12 6 8 6-1-23-4-8-7-6-8-3-6-1h-13l-13 3-13 7-8 6-6-9-8-15 1-4 13-8 12-6 19-5zm-3 82-9 2-9 6-5 9v10l5 8 8 6 5 2 12 1 11-2 9-5 5-4 3-9-1-10-7-8-12-5z" fill="#FDFDFD"/>
<path transform="translate(1700,574)" d="m0 0h15l14 2 12 4 11 6 8 8 7 12 2 7 1 8v99l-1 1h-35l-2-2v-8l1-3-7 4-10 7-11 4-15 2-16-1-11-4-10-6-7-6-6-9-4-11-1-5v-13l4-12 6-10 10-9 11-5 9-2h24l13 3 12 6 7 5v-21l-3-8-7-6-9-4-6-1h-13l-13 3-12 6-10 7-2-2-7-14-5-7 1-4 13-9 16-7 16-4zm-2 82-12 3-8 7-3 6-1 8 3 9 8 7 9 3h17l11-4 8-6 2-4v-15l-7-8-9-4-13-2z" fill="#FDFDFD"/>
<path transform="translate(785,574)" d="m0 0h14l16 3 14 6 9 7 7 6 7 10 7 15 5 18v22l-1 1h-107l5 12 7 9 8 6 11 4 5 1h12l16-4 12-6 5-3 12 16 4 7-2 4-14 8-13 5-15 3-11 1h-10l-15-2-14-5-13-7-12-11-7-10-7-15-2-8-1-13v-10l2-16 5-13 8-13 9-10 13-9 14-6 8-2zm0 30-10 3-9 7-7 10-3 7v4l5 1h66l1-2-5-13-9-10-8-5-10-2z" fill="#FDFDFD"/>
<path transform="translate(1562,574)" d="m0 0h13l11 2 12 5 8 7 6 10 3 9v114h-38l-1-94-3-9-4-5-9-4h-18l-10 4-10 7-3 4-1 6v90l-1 1h-37l-1-141 1-2h37v17l13-10 16-8z" fill="#FDFDFD"/>
<path transform="translate(1166,574)" d="m0 0h15l14 2 14 5 13 9 8 8-1 4-8 8-8 7-6 6-3-1v-2h-2v-2l-4-2-8-5-7-2h-16l-11 4-9 7-7 11-3 10v17l4 12 6 8 1 3 4 2 6 4 10 3h15l11-4 9-7 2-3 4 2 8 8 11 9 2 2-1 4-7 8-14 9-14 5-15 2h-12l-14-2-14-5-11-6-11-9-9-12-8-17-3-12-1-14 2-17 6-16 8-13 10-11 14-9 13-5 8-2z" fill="#FDFDFD"/>
<path transform="translate(943,320)" d="m0 0 16 1 13 4 11 7 8 8 8 15 4 12 2 13v15l-3 16-6 15-6 9-4 5-13 9-11 4-13 2-13-1-16-6-9-7-8-7 1 2v63l-1 1h-19v-177h18l2 1v9l-1 8 8-7 11-8 13-5zm-8 18-13 4-10 7-7 7-1 2v60l9 9 10 6 14 4h10l13-4 10-7 6-8 4-8 3-12v-20l-3-12-7-14-7-7-12-6-4-1z" fill="#FDFDFD"/>
<path transform="translate(350,296)" d="m0 0h18l10 3 10 6 7 8 7 16v13l-5 16-8 13-10 10-14 9-16 5h-20l-12-4-8-6-7-8-5-10-1-3v-17l4-12 6-11 8-10 12-9 12-6z" fill="#FEFEFE"/>
<path transform="translate(884,523)" d="m0 0h38v198h-38z" fill="#FEFEFE"/>
<path transform="translate(1800,523)" d="m0 0h36l1 1v196l-1 1h-37v-197z" fill="#FDFDFD"/>
<path transform="translate(1195,320)" d="m0 0 19 1 13 4 9 6 5 5 6 10 2 8 1 33v58l-1 6h-20l1-13-13 9-11 5-8 2-12 1-14-2-10-4-10-8-7-10-3-8-1-14 2-11 5-10 6-7 11-7 9-3 7-1h16l12 3 12 6 6 5 1 2v-26l-3-8-5-7-10-5-3-1h-20l-13 4-9 6-7 6-3-1-6-11 1-4 7-6 14-8 9-3zm-6 64-8 2-8 4-8 9-3 8v11l3 7 7 8 5 4 9 3h15l12-3 10-6 6-7 1-5v-12l-2-8-5-6-14-7-10-2z" fill="#FDFDFD"/>
<path transform="translate(803,320)" d="m0 0 18 1 10 3 11 6 7 7 5 10 2 9v95h-20v-9l1-3-6 3-9 6-9 4-16 3-14-1-14-5-10-8-7-10-3-9v-19l3-10 8-11 10-7 10-4 6-1h18l12 3 12 6 8 7-1-24-2-9-6-8-10-5-4-1h-19l-13 4-9 6-7 6-5-5-5-7 1-4 14-10 13-6 9-2zm-7 64-13 4-10 9-4 11v10l4 9 6 7 10 5 4 1h16l13-4 9-6 5-6v-23l-5-7-10-6-9-3-6-1z" fill="#FDFDFD"/>
<path transform="translate(706,574)" d="m0 0 4 1v35l-20 2-14 5-10 7-1 6v90l-1 1h-37v-143h37v17l4-2 5-5 11-7 12-5z" fill="#FDFDFD"/>
<path transform="translate(1248,578)" d="m0 0h39v142l-1 1h-38z" fill="#FDFDFD"/>
<path transform="translate(684,320)" d="m0 0h11l16 3 12 6 10 8v2h2l1 5-10 9-4 1-7-7-8-5-11-3h-13l-13 4-9 7-6 7-5 11-2 6-1 8v10l2 13 8 16 7 7 12 6 9 2h9l13-3 9-6 6-6 5 2 7 6 2 1-1 5-11 10-12 6-11 3-14 1-15-2-13-5-11-7-8-8-8-13-5-14-2-15 1-17 3-12 8-16 9-10 9-7 12-6 8-2z" fill="#FEFEFE"/>
<path transform="translate(1083,289)" d="m0 0h20v34h25l1 1v16l-1 1h-25l1 84 2 8 5 2 2 1h7l11-5 4 11v5l-10 6-8 2h-11l-11-4-5-4-5-8-2-7v-91h-19l-3-1v-10l1-7h21z" fill="#FEFEFE"/>
<path transform="translate(1281,275)" d="m0 0h19l1 1v175h-20l-1-2v-38z" fill="#FEFEFE"/>
<path transform="translate(1028,323)" d="m0 0h19l1 1 1 126-1 1h-21v-127z" fill="#FEFEFE"/>
<path transform="translate(256,274)" d="m0 0 12 2 8 6 6 10 1 3v10l-6 12-11 17-12 20-11 23-5 15-2 10h-1v-7l5-18 12-26 11-18 5-6 7-14 2-2 2-10v-9l-4-6-8-7-3-1h-11l-8 4-10 9-4 4-3 5-9 12-6 9-6 10-6 11-9 21-5 15-6 21-4 22-3 25-1 11 2 29 3 20 5 23 7 21 11 26 13 23 8 12 13 16 11 14 14 14 8 7 13 10 19 12 16 9 21 9 24 8 19 5 27 4h46l21-2 13-2 13-3 21-6 19-7 14-7 8-6 6-8 2-5 2-21 2 4 1 8-3 13-6 10-7 6-14 8-24 9-27 7-23 4-18 2h-44l-23-3-26-6-26-9-27-13-18-11-14-10-11-9-10-9-18-18-11-14-11-15-14-24-9-19-9-25-7-26-5-40v-22l4-35 6-25 10-30 8-18 12-22 10-14 10-13 8-10 10-7z" fill="#DDEDF7"/>
<path transform="translate(442,386)" d="m0 0 13 1 12 6 7 9 4 10v13l-4 13-6 12-9 12-11 12-9 11-8 10-13 19-10 17-8 16-8 18-8 26-4 18 3 10 7 11 10 7 10 4 16 3h25l26-4 26-7 21-7 6-1h10l9 2 9 5 8 7 4 6-1 2-7-8-13-8-9-2h-11l-20 5-25 7-24 5-11 2h-24l-14-3-11-4-9-6-9-10-5-12-1-6 8-31 7-20 5-11 8-17 12-19 10-13 8-11 13-15 14-16 9-16 4-10 1-6v-11l-3-7-6-7-6-4-10-2h-10l-18 7-22 12-28 13-23 10-27 9-30 8-21 3h-14l-8-5v-3l5 4 2 1 18-1 23-4 29-8 24-9 23-10 21-10 20-11 15-8z" fill="#DDEDF7"/>
<path transform="translate(1263,511)" d="m0 0h8l9 4 5 4 5 10v10l-4 8-8 7-8 3h-7l-9-4-5-5-4-5-2-10 3-10 4-5 9-6z" fill="#FDFDFD"/>
<path transform="translate(684,320)" d="m0 0h11l16 3 12 6 10 8v2h2l1 5-10 9-4 1-7-7-8-5-11-3h-13l-13 4-9 7-6 7-5 11-2 6-1 8v10l2 13 8 16 7 7 12 6 9 2h9l13-3 9-6 6-6 5 2 7 6 2 1-1 5-11 10-12 6-11 3-14 1-15-2-13-5-11-7-8-8-8-13-5-14-2-15 1-17 3-12 8-16 9-10 9-7 12-6 8-2zm-2 3-12 3-16 8-8 6-10 11-6 12-2 9-1 15 1 14 5 16 8 13 11 11 14 8 7 2 12 1h10l15-3 9-4 7-5v-2h2l3-6-2-4h-2v-2l-3-1-9 6-10 5-3 1h-17l-13-2-9-5-5-4-5-7-5-11-3-12v-19l3-12 4-10 3-3v-2l4-2 7-6 12-5 8-1h10l12 3 11 7 3 3h6l4-7-2-4-7-6-5-2-8-4-13-3z" fill="#DDEDF7"/>
<path transform="translate(1083,289)" d="m0 0h20v34h25l1 1v16l-1 1h-25l1 84 2 8 5 2 2 1h7l11-5 4 11v5l-10 6-8 2h-11l-11-4-5-4-5-8-2-7v-91h-19l-3-1v-10l1-7h21zm4 1-2 1-1 32-1 2-17 1-1 1v10l5 1 1 2h7l3-1 4 2 1 73 2 22 3 6 4 5 7 3h18l7-2 4-4-2-5-1-1h-6l-1 1h-10l-4-2h-3l-2-5-1-3-1-11v-18l1-59 2-1 21-2 4-4v-8l-4-1-22-1v-21l-1-12z" fill="#DDEDF7"/>
<path transform="translate(1375,574)" d="m0 0h15l13 2 13 4 16 9 11 11 9 14 4 10 3 19v12l-3 20-4 10-7 11-11 12-14 9-13 5-19 3h-12l-14-2-14-5-12-7-10-9-6-7-5-8-7-19-1-5v-27l1-5h1v30l5 16 6 12 12 14 11 8 12 6 9 3 6 1h20l15-3 9-3 8-4 9-6 6-5 8-10 7-14 2-6 2-18-1-19-2-10-4-9-7-11-11-11-13-8-10-4-13-3h-23l-15 3-12 5-11 8-11 11-8 13-2 2 1-5 6-10 9-10 8-7 10-6 15-5z" fill="#DDEDF7"/>
<path transform="translate(350,296)" d="m0 0h18l10 3 10 6 7 8 7 16v13l-5 16-8 13-10 10-14 9-16 5h-20l-12-4-8-6-7-8-5-10-1-3v-17l4-12 6-11 8-10 12-9 12-6zm2 4-15 4-12 6-10 7-7 7-6 10-4 10v19l5 11 7 9 14 7 5 1h20l13-4 11-6 12-11 8-13 4-10 2-7v-11l-5-12-4-6-7-6-12-5z" fill="#DDEDF7"/>
<path transform="translate(1007,574)" d="m0 0h14l14 2 13 4 12 7 7 7 6 12 4 17v98h-38l-1-3h14l19 1 2 1 1-3v-66l-1-27-2-13-5-13-4-4v-2l-4-2-7-5-8-4-12-3-10-1h-17l-14 2-15 5-15 8-5 4 1 4 3 8 4 6 8-1 16-8 9-2 16-1 12 3 11 8 3 5 2 11-1 17h-1l-1-22-4-8-7-6-8-3-6-1h-13l-13 3-13 7-8 6-6-9-8-15 1-4 13-8 12-6 19-5z" fill="#DDEDF7"/>
<path transform="translate(1166,574)" d="m0 0h15l14 2 14 5 13 9 5 6-4-2-10-7-8-4-15-5-8-1h-15l-15 2-17 7-10 7-6 5-1 2h-2l-2 5-6 9-6 14-2 8-1 17 3 17 6 14 2 6h2l7 9 7 7 10 6 13 6 14 3h23l18-5 8-4 10-7 3-2v-7l-10-8-7-7-7 1 4-6 4 2 8 8 11 9 2 2-1 4-7 8-14 9-14 5-15 2h-12l-14-2-14-5-11-6-11-9-9-12-8-17-3-12-1-14 2-17 6-16 8-13 10-11 14-9 13-5 8-2z" fill="#DDEDF7"/>
<path transform="translate(798,335)" d="m0 0h11l13 3 6 2 1 1 5 3 2 3 1 12 1 1v22l-1 5-6-1-1-3-4-2-10-4-18-3h-9l-9 2-9 4-11 7-5 8-2 9v20l4 9 7 8 8 6 5 2 16 2 13-1 11-2 4-2 3 1-11 5-16 3-14-1-14-5-10-8-7-10-3-9v-19l3-10 8-11 10-7 10-4 6-1h18l12 3 12 6 8 7-1-24-2-9-6-8-10-5-4-1h-19l-13 4-9 6-7 6-4-4 4-2 10-7 15-6z" fill="#DDEDF7"/>
<path transform="translate(1028,323)" d="m0 0h19l1 1 1 126-1 1h-21v-127zm3 3-1 1-1 28v24l1 60 1 8 4 3 7-1 2-8 1-33v-80l-3-2z" fill="#DDEDF7"/>
<path transform="translate(785,574)" d="m0 0h14l16 3 14 6 9 7 7 6 7 10-1 2-8-10-16-13-15-6-14-2h-11l-15 2-14 5-12 7-10 10-8 12-6 16-2 18v10l1 11 7 17 7 11 7 8 14 9 16 6 10 2h23l18-4 16-6 6-3 3-5-1-7 4 4 2 6-5 4-16 8-16 5-18 2h-10l-15-2-14-5-13-7-12-11-7-10-7-15-2-8-1-13v-10l2-16 5-13 8-13 9-10 13-9 14-6 8-2z" fill="#DDEDF7"/>
<path transform="translate(1480,578)" d="m0 0h37l-1 2h-33v137l4 2h20l7-1 1-2 1-90 3-6 8-7 14-7h21l9 6 2 4-10-6-3-1h-18l-10 4-10 7-3 4-1 6v90l-1 1h-37l-1-141z" fill="#DDEDF7"/>
<path transform="translate(1181,370)" d="m0 0h16l12 3 12 6 6 5 1 3-6-2-5-5-4-1v-2l-18-2v-2l-18 2-16 8h-2l-1 3-7 6-3 6-2 15 1 12 5 10 7 8 11 6 13 2h12l14-1-3 2-8 2-12 1-14-2-10-4-10-8-7-10-3-8-1-14 2-11 5-10 6-7 11-7 9-3z" fill="#DDEDF7"/>
<path transform="translate(1281,275)" d="m0 0h19l1 1v175h-20l-1-2v-38zm3 1-1 1-1 33v108l1 29 4 3 9-1 3-3v-166l-3-4z" fill="#DDEDF7"/>
<path transform="translate(943,320)" d="m0 0 16 1 13 4 11 7 8 8 8 15 4 12 2 13v15l-3 16-6 15-6 9-4 5-13 9-11 4-13 2-13-1-16-6-4-4 4 1 8 4 8 2h20l12-3 12-7 3-3h2l2-4 3-5 8-15 2-8 1-10v-20l-3-15-4-11-7-9v-2l-4-2-11-8-17-5h-18l-13 5-8 4-4 3-2-1 10-8 11-5z" fill="#DDEDF7"/>
<path transform="translate(1035,275)" d="m0 0 8 1 6 4 2 4v9l-7 8-2 1h-8l-5-3-4-5-1-2v-7l4-6z" fill="#FEFEFE"/>
<path transform="translate(1385,605)" d="m0 0 9 1 12 7 6 5 6 10 3 11v18l-3 13-7 11-10 8-11 4h-14l-11-3-6-4-7-8-5-10-3-11v-15l3-14h2l1-6 5-7 10-6 7-3zm-10 3-11 4-8 7-7 12-3 12v12l2 10 6 12 5 6 10 6 8 2h12l10-3 11-8 6-9 3-11v-22l-4-12-9-10-9-6-7-2z" fill="#DDEDF7"/>
<path transform="translate(884,523)" d="m0 0h38v198h-38zm2 1-1 1v190l1 3 4 1 30 1 1-4v-192z" fill="#DDEDF7"/>
<path transform="translate(706,574)" d="m0 0 4 1v35l-20 2-14 5-10 7-1 6v90l-1 1h-37l1-4v2h12l21 1 1-91 2-7 7-6 9-4 8-3 19-3v-29l-8 1-11 4-11 6-7 5-1-2 13-9 11-5z" fill="#DDEDF7"/>
<path transform="translate(791,601)" d="m0 0 14 1 10 5 7 7 5 10 2 13-5 2h-63l-6-3 1-10 4-9 7-8 11-6zm-6 3-10 3-9 7-7 10-3 7v4l5 1h66l1-2-5-13-9-10-8-5-10-2z" fill="#DDEDF7"/>
<path transform="translate(1700,574)" d="m0 0h15l14 2 12 4 11 6 8 8 7 12 2 7 1 8v99l-1 1h-35l-2-2v-8l1-3-3-1h4v10l1 2h23l9-1v-99l-1-9-6-12-9-10-16-8-14-3h-28l-15 3-19 8-9 6-2-1 10-7 16-7 16-4z" fill="#DDEDF7"/>
<path transform="translate(803,320)" d="m0 0 18 1 10 3 11 6 7 7 5 10 2 9v95h-20v-9l2-3 1 9 1 1h8l6-3v-88l-2-10-4-8-9-8-4-3-12-4-6-1h-22l-16 5-12 7-7 5v7l-5-5 1-4 14-10 13-6 9-2z" fill="#DDEDF7"/>
<path transform="translate(1171,605)" d="m0 0h9l9 1 6 4 6 3v2l4 1 11-3-6 7-3 3-3-1v-2h-2v-2l-4-2-8-5-7-2h-16l-11 4-9 7-7 11-3 10v17l4 12 6 8 1 3 4 2 6 4 10 3h15l11-4h3l-8 5-7 2h-14l-11-3-10-7-7-9-5-13-1-15 2-12 4-10 4-6 8-7 12-5z" fill="#DDEDF7"/>
<path transform="translate(1562,574)" d="m0 0h13l11 2 12 5 8 7 6 10 3 9v114h-38l-1-94-3-11 4 4 1 4v94h29l7-1-1-107-3-11-6-9-7-6-6-4-10-3h-24l-12 3-5 2-3-1 9-4z" fill="#DDEDF7"/>
<path transform="translate(1800,523)" d="m0 0h6v1h-5l1 194 7 1h26l2-2-1 4h-37v-197z" fill="#DDEDF7"/>
<path transform="translate(793,382)" d="m0 0h13l16 4 5 3 7 4 4 7v24l-5 8-3 2h-3v2l-8 4-10 2h-10l-14-2-9-6-5-6-4-9v-14l4-11h2l2-4 8-5zm3 2-13 4-10 9-4 11v10l4 9 6 7 10 5 4 1h16l13-4 9-6 5-6v-23l-5-7-10-6-9-3-6-1z" fill="#DDEDF7"/>
<path transform="translate(1007,653)" d="m0 0h10l8 2 9 6 4 4 2 4v16l-4 7-8 6-11 4h-17l-12-6-6-7-3-6v-12l5-8 2-3h3v-2l9-4zm-3 3-9 2-9 6-5 9v10l5 8 8 6 5 2 12 1 11-2 9-5 5-4 3-9-1-10-7-8-12-5z" fill="#DDEDF7"/>
<path transform="translate(1688,604)" d="m0 0h23l11 4 7 5 4 8 1 4v11l-1 12-5-1-11-7-13-4-9-1h-21l-12 3-7 4-2-1 8-5 9-3 5-1h24l13 3 12 6 7 5v-21l-3-8-7-6-9-4-6-1h-13l-13 3-12 6-10 7-2-2-2-7 9 1 16-8z" fill="#DDEDF7"/>
<path transform="translate(1693,654)" d="m0 0h18l9 3 9 6 5 6v16l-4 6-7 6-10 4-4 1h-16l-9-4-8-7-3-10v-9l4-9 8-6zm5 2-12 3-8 7-3 6-1 8 3 9 8 7 9 3h17l11-4 8-6 2-4v-15l-7-8-9-4-13-2z" fill="#DDEDF7"/>
<path transform="translate(884,323)" d="m0 0h18l2 1-1 3-9-1-8 1v100l1 70 3 3h-6z" fill="#DDEDF7"/>
<path transform="translate(863,656)" d="m0 0h1v5l-1 1h-107l1-2 10-1 24-1 70-1z" fill="#DDEDF7"/>
<path transform="translate(943,665)" d="m0 0h1v12l2 13 7 14 8 7 10 6 13 4h15l9-2 11-3 9-4 2 1-8 6-11 4-13 2h-10l-14-3-12-6-10-9-6-10-4-13v-15z" fill="#DDEDF7"/>
<path transform="translate(1195,320)" d="m0 0 19 1 13 4 9 6 5 5 3 4-1 2-9-9-8-5-14-4-13-1-16 2-11 4-8 4-8 6-3 4v5l-4-5 1-4 7-6 14-8 9-3z" fill="#DDEDF7"/>
<path transform="translate(1636,666)" d="m0 0h1v16l4 12 5 10 9 8 12 6 10 3h19l18-5 10-5 2 1-10 7-11 4-15 2-16-1-11-4-10-6-7-6-6-9-4-11-1-5v-13z" fill="#DDEDF7"/>
<path transform="translate(755,663)" d="m0 0 2 1 4 10 7 9 8 6 11 4 5 1h12l16-4 12-6 5-3 9 12v2h-2l-5-6v-2l-7 1-5 3-18 6-13 1-13-2-11-6-8-7-1-4h-2l-6-13z" fill="#DDEDF7"/>
<path transform="translate(1188,382)" d="m0 0 9 1v1l-14 2-10 5-7 8-3 8v11l3 7 7 8 6 4 7 2h15l12-3 10-6 5-4-2 4-8 7-13 4-4 1h-11l-14-3-8-6-5-7-3-9v-9l3-9 6-8 5-4 10-4z" fill="#DDEDF7"/>
<path transform="translate(981,632)" d="m0 0h24l13 3 12 6 9 7-3 1-12-8-12-4-10-1h-21l-11 3-10 5-7 6-4 4 2-5 8-8 9-5z" fill="#DDEDF7"/>
<path transform="translate(1192,335)" d="m0 0 10 1 11 2 10 6 5 7 2 8v28h-1l-1-27-3-8-5-7-10-5-3-1h-20l-13 4-9 6-7 6-3-1-2-6 3 1 5-3 7-3 12-6z" fill="#DDEDF7"/>
<path transform="translate(937,336)" d="m0 0h12l9 2 11 7 7 8 5 10 3 12v25l-3 10-1-4 2-8v-20l-3-12-7-14-8-7-10-5-4-1h-15l-13 4-10 7-7 6v-3l11-9 12-6z" fill="#DDEDF7"/>
<path transform="translate(1248,578)" d="m0 0h39v142h-1l-1-136-1-3-35-1-1 2z" fill="#DDEDF7"/>
<path transform="translate(1035,275)" d="m0 0 8 1 6 4 2 4v9l-7 8-2 1h-8l-5-3-4-5-1-2v-7l4-6zm1 3-6 3-3 3-1 6 2 6 5 4h10l4-5 1-2v-9l-5-5z" fill="#DDEDF7"/>
<path transform="translate(1263,511)" d="m0 0h8l9 4 5 4 5 10v10l-4 8-6 6h-2l2-4 3-1 3-10 1-9-5-9-5-4-6-2h-14l2-2z" fill="#DDEDF7"/>
<path transform="translate(903,436)" d="m0 0h1v63l-1 1h-5l2-1 1-3z" fill="#DDEDF7"/>
<path transform="translate(979,410)" d="m0 0 1 4-6 11-8 7-10 5-3 1h-16v-1l15-2 10-4 9-7 6-10z" fill="#DDEDF7"/>
<path transform="translate(1247,522)" d="m0 0 1 3-2 7 1 9 4 6 5 4 8 4 6 1v1h-7l-9-4-5-5-4-5-2-10 3-10z" fill="#DDEDF7"/>
<path transform="translate(1218,390)" d="m0 0 4 1 6 4 4 9v14l-3 8-1-2 1-5v-12l-2-8-4-5z" fill="#DDEDF7"/>
<path transform="translate(907,421)" d="m0 0 8 6 8 5 9 3v1l-9-1-10-5v-2l-4-2z" fill="#DDEDF7"/>
<path transform="translate(1230,444)" d="m0 0h1l1 5h16l1-2v4h-20v-6z" fill="#DDEDF7"/>
<path transform="translate(1646,594)" d="m0 0h2l-1 5 3 4-1 3-5-7 1-4z" fill="#DDEDF7"/>
</svg>